<mxfile modified="2020-10-14T17:43:50.110Z" host="app.diagrams.net" agent="5.0 (Windows NT 10.0; Win64; x64) AppleWebKit/537.36 (KHTML, like Gecko) Chrome/86.0.4240.75 Safari/537.36 Edg/86.0.622.38" etag="8Z2tjxqMzSw8LmWyKGlN" version="13.8.0" type="github">
  <diagram id="WI9T0HZ2pTsCkuznbFz-" name="Page-1">
    <mxGraphModel dx="1038" dy="508" grid="1" gridSize="10" guides="1" tooltips="1" connect="1" arrows="1" fold="1" page="1" pageScale="1" pageWidth="1169" pageHeight="827" math="0" shadow="0">
      <root>
        <mxCell id="0" />
        <mxCell id="1" parent="0" />
        <mxCell id="Sj2D-mmN9BOlEUQ74xoP-7" style="edgeStyle=orthogonalEdgeStyle;rounded=0;orthogonalLoop=1;jettySize=auto;html=1;exitX=0.4;exitY=0.01;exitDx=0;exitDy=0;exitPerimeter=0;entryX=0.435;entryY=1.05;entryDx=0;entryDy=0;entryPerimeter=0;" edge="1" parent="1" source="Sj2D-mmN9BOlEUQ74xoP-1" target="Sj2D-mmN9BOlEUQ74xoP-3">
          <mxGeometry relative="1" as="geometry" />
        </mxCell>
        <mxCell id="Sj2D-mmN9BOlEUQ74xoP-9" style="edgeStyle=orthogonalEdgeStyle;rounded=0;orthogonalLoop=1;jettySize=auto;html=1;exitX=0;exitY=0.5;exitDx=0;exitDy=0;exitPerimeter=0;entryX=1;entryY=0.5;entryDx=0;entryDy=0;" edge="1" parent="1" source="Sj2D-mmN9BOlEUQ74xoP-1" target="Sj2D-mmN9BOlEUQ74xoP-5">
          <mxGeometry relative="1" as="geometry" />
        </mxCell>
        <mxCell id="Sj2D-mmN9BOlEUQ74xoP-12" style="edgeStyle=orthogonalEdgeStyle;rounded=0;orthogonalLoop=1;jettySize=auto;html=1;entryX=0;entryY=0.5;entryDx=0;entryDy=0;" edge="1" parent="1" source="Sj2D-mmN9BOlEUQ74xoP-1" target="Sj2D-mmN9BOlEUQ74xoP-4">
          <mxGeometry relative="1" as="geometry" />
        </mxCell>
        <mxCell id="Sj2D-mmN9BOlEUQ74xoP-1" value="" style="pointerEvents=1;shadow=0;dashed=0;html=1;strokeColor=none;labelPosition=center;verticalLabelPosition=bottom;verticalAlign=top;align=center;fillColor=#515151;shape=mxgraph.mscae.system_center.software_update_point" vertex="1" parent="1">
          <mxGeometry x="440" y="291" width="130" height="123" as="geometry" />
        </mxCell>
        <object placeholders="1" c4Name="基于轻量级神经网络的目标检测系统" c4Type="Software System" c4Description="ios、Android、Windows" label="&lt;b&gt;%c4Name%&lt;/b&gt;&lt;div&gt;[%c4Type%]&lt;/div&gt;&lt;br&gt;&lt;div&gt;%c4Description%&lt;/div&gt;" id="Sj2D-mmN9BOlEUQ74xoP-2">
          <mxCell style="rounded=1;whiteSpace=wrap;html=1;labelBackgroundColor=none;fillColor=#1168BD;fontColor=#ffffff;align=center;arcSize=10;strokeColor=#1168BD;metaEdit=1;metaData={&quot;c4Type&quot;:{&quot;editable&quot;:false}};points=[[0.25,0,0],[0.5,0,0],[0.75,0,0],[1,0.25,0],[1,0.5,0],[1,0.75,0],[0.75,1,0],[0.5,1,0],[0.25,1,0],[0,0.75,0],[0,0.5,0],[0,0.25,0]];" vertex="1" parent="1">
            <mxGeometry x="425" y="430" width="160" height="100" as="geometry" />
          </mxCell>
        </object>
        <mxCell id="Sj2D-mmN9BOlEUQ74xoP-3" value="&lt;font style=&quot;font-size: 18px&quot;&gt;灵活性&lt;/font&gt;" style="rounded=1;whiteSpace=wrap;html=1;" vertex="1" parent="1">
          <mxGeometry x="440" y="120" width="120" height="60" as="geometry" />
        </mxCell>
        <mxCell id="Sj2D-mmN9BOlEUQ74xoP-4" value="&lt;span style=&quot;font-size: 18px&quot;&gt;可扩展性&lt;/span&gt;" style="rounded=1;whiteSpace=wrap;html=1;" vertex="1" parent="1">
          <mxGeometry x="690" y="322.5" width="120" height="60" as="geometry" />
        </mxCell>
        <mxCell id="Sj2D-mmN9BOlEUQ74xoP-5" value="&lt;span style=&quot;font-size: 18px&quot;&gt;易维护&lt;/span&gt;" style="rounded=1;whiteSpace=wrap;html=1;" vertex="1" parent="1">
          <mxGeometry x="180" y="322.5" width="120" height="60" as="geometry" />
        </mxCell>
        <mxCell id="Sj2D-mmN9BOlEUQ74xoP-14" value="核心需求" style="text;html=1;strokeColor=none;fillColor=none;align=center;verticalAlign=middle;whiteSpace=wrap;rounded=0;" vertex="1" parent="1">
          <mxGeometry x="500" y="230" width="50" height="20" as="geometry" />
        </mxCell>
        <mxCell id="Sj2D-mmN9BOlEUQ74xoP-15" value="核心需求" style="text;html=1;strokeColor=none;fillColor=none;align=center;verticalAlign=middle;whiteSpace=wrap;rounded=0;" vertex="1" parent="1">
          <mxGeometry x="590" y="330" width="50" height="20" as="geometry" />
        </mxCell>
        <mxCell id="Sj2D-mmN9BOlEUQ74xoP-16" value="核心需求" style="text;html=1;strokeColor=none;fillColor=none;align=center;verticalAlign=middle;whiteSpace=wrap;rounded=0;" vertex="1" parent="1">
          <mxGeometry x="350" y="330" width="50" height="20" as="geometry" />
        </mxCell>
      </root>
    </mxGraphModel>
  </diagram>
</mxfile>
